<svg width="202" height="75" viewBox="0 0 202 75" fill="none" xmlns="http://www.w3.org/2000/svg">
<rect x="190.78" y="3.91444" width="2.53057" height="1.86403" fill="#232323" stroke="white" stroke-width="2"/>
<rect x="-0.932017" y="0.932017" width="2.53057" height="1.86403" transform="matrix(-1 0 0 1 10.4426 2.98242)" fill="#232323" stroke="white" stroke-width="2"/>
<rect x="-0.932017" y="0.932017" width="2.53057" height="1.86403" transform="matrix(-1 0 0 1 196.771 65.6138)" fill="#232323" stroke="white" stroke-width="2"/>
<rect x="4.44764" y="66.5458" width="2.53057" height="1.86403" fill="#232323" stroke="white" stroke-width="2"/>
<rect x="195.174" y="7.64247" width="2.53057" height="1.86403" fill="#232323" stroke="white" stroke-width="2"/>
<rect x="-0.932017" y="0.932017" width="2.53057" height="1.86403" transform="matrix(-1 0 0 1 6.04612 6.71045)" fill="#232323" stroke="white" stroke-width="2"/>
<rect x="-0.932017" y="0.932017" width="2.53057" height="1.86403" transform="matrix(-1 0 0 1 192.378 69.3423)" fill="#232323" stroke="white" stroke-width="2"/>
<rect x="8.84217" y="70.2743" width="2.53057" height="1.86403" fill="#232323" stroke="white" stroke-width="2"/>
<line x1="12.3066" y1="73.0698" x2="189.849" y2="73.0698" stroke="white" stroke-width="3"/>
<line x1="12.3066" y1="1.49119" x2="189.849" y2="1.49119" stroke="white" stroke-width="3"/>
<line x1="200.126" y1="8.94727" x2="200.126" y2="67.1051" stroke="white" stroke-width="3"/>
<line x1="1.49123" y1="8.94727" x2="1.49122" y2="67.1051" stroke="white" stroke-width="3"/>
</svg>
